PathFileType	4	(X/Y/Z)	Patient4_TMGait_0pt7_01_right_49.trc.trc
DataRate	CameraRate	NumFrames	NumMarkers	Units	OrigDataRate	OrigDataStartFrame	OrigNumFrames
85.365853658537	85.365853658537	6	33	mm	85.365853658537	89	       141
Frame#	Time	Sacral			L.Shoulder			Chest			R.Shoulder			Neck			R.ASIS			L.ASIS			R.Thigh.Superior			R.Thigh.Lateral			R.Thigh.Inferior			R.Patella			L.Thigh.Superior			L.Thigh.Lateral			L.Thigh.Inferior			L.Patella			L.Shank.Superior			L.Shank.Lateral			L.Shank.Inferior			R.Shank.Superior			R.Shank.Lateral			R.Shank.Inferior			R.Heel			R.Midfoot.Superior			R.Midfoot.Lateral			R.Toe			L.Heel			L.Midfoot.Lateral			L.Midfoot.Superior			L.Toe			L.Elbow			L.Wrist			R.Elbow			R.Wrist			
		X1	Y1	Z1	X2	Y2	Z2	X3	Y3	Z3	X4	Y4	Z4	X5	Y5	Z5	X6	Y6	Z6	X7	Y7	Z7	X8	Y8	Z8	X9	Y9	Z9	X10	Y10	Z10	X11	Y11	Z11	X12	Y12	Z12	X13	Y13	Z13	X14	Y14	Z14	X15	Y15	Z15	X16	Y16	Z16	X17	Y17	Z17	X18	Y18	Z18	X19	Y19	Z19	X20	Y20	Z20	X21	Y21	Z21	X22	Y22	Z22	X23	Y23	Z23	X24	Y24	Z24	X25	Y25	Z25	X26	Y26	Z26	X27	Y27	Z27	X28	Y28	Z28	X29	Y29	Z29	X30	Y30	Z30	X31	Y31	Z31	X32	Y32	Z32	X33	Y33	Z33	

89	57.400857142857	878.132791277664	1012.824556616491	485.583126856599	1057.269307797166	1429.929902919791	291.172184575971	1174.296356597857	1352.735733701960	439.627188847194	1114.934887662661	1436.767693009797	618.695171169873	1080.701193161073	1489.187719097567	443.517866338620	1103.978736033462	935.726755519119	590.386726845943	1081.063035622923	952.814973242182	316.967953491519	1114.633752496283	724.133191312579	577.906146858943	1018.670820476702	627.230131432201	643.004109702974	1091.457924145798	557.418160543206	571.936789123359	1069.785796120663	452.629578339211	592.606611186385	1150.677795889559	765.868985174829	351.820807589435	1081.634758170874	639.014152670413	288.133086881930	1177.768223508758	572.199576961511	349.634970443191	1189.241134211169	501.028772693617	356.941200166968	1165.907560081055	426.905974025442	347.508101503516	1084.269026425320	308.527279863633	293.838553798270	1142.836942321773	198.596074092954	360.787895364509	990.363712090356	389.933161705072	599.255764237398	868.715339933936	351.982721784147	658.951569537719	853.651777479233	242.764389591963	609.727149090077	650.044961618575	177.224938874400	582.771482540965	820.128170555010	121.062760197978	619.479359492676	710.186569686197	113.981918074258	651.041714034408	886.388502171030	31.009425805144	632.523241541582	1021.895884289047	39.247845636426	397.356129660844	1097.162326131217	37.137061194009	317.791037338526	1179.924951688275	97.888039154949	346.350703363540	1308.810153754512	43.480012705531	319.376806488269	906.548764483122	1111.524016105922	196.262031274422	911.577382255542	848.542198861443	200.884976036210	1179.526758858205	1101.011642762586	735.314993992412	1400.195220529885	1133.119334260333	623.768333221025	
90	57.412571428571	878.378963512667	1013.272330659556	482.694714091931	1059.178111708626	1430.716451573902	288.699675781227	1175.019662573282	1353.594832198539	438.086963720907	1114.195843114578	1437.637269362341	616.655886850800	1081.263690309043	1489.964261946668	441.062366474345	1104.112429270125	936.647332447739	588.113321491881	1081.872087177525	953.496066324508	314.835015422795	1120.317230487694	726.233165773902	575.955691003412	1027.545131484979	627.198309377791	641.269481914389	1102.207365595089	558.695689116845	570.086884986033	1081.806777359177	452.552675054095	591.281269128817	1150.217483681417	764.776713257495	348.696026498560	1078.998557760965	638.856922483338	286.308455573787	1174.430213749524	571.211752458705	347.788890506548	1185.122679161264	500.156608202599	355.432658486521	1161.131636076329	426.136005544381	346.202607806777	1078.431751264152	308.326599090397	293.011772577146	1136.028867061993	198.146821091101	360.281816012881	1000.518232690300	390.821993932194	598.111057993088	877.486198463008	357.244723921868	657.798703302120	859.191081835972	248.209495387789	609.611717544279	654.677059825765	193.002837317393	582.817468124154	820.613010891213	125.827854691904	619.853585557677	710.487989762898	125.872581568664	651.078758934368	879.696916192471	29.607330592397	632.815032457104	1013.725799407686	39.306489016026	397.298765648353	1088.978374805685	37.063953957825	317.728398527190	1171.863189811200	97.677715514882	346.285580343413	1300.727974891142	42.929293499650	319.282912347636	912.103020874668	1110.577273769742	191.869633022474	929.797695979549	847.968100002561	197.149028361565	1170.432905054564	1099.551512737978	733.124496602443	1395.956801586924	1115.292204234388	626.557847063159	
91	57.424285714286	878.409186524768	1013.546398366799	479.928962918513	1060.970207982842	1431.270947617968	286.358483050251	1175.568873444060	1354.239656683965	436.742256909005	1113.227414101073	1438.289769233340	614.804314332373	1081.688766033803	1490.577475699793	438.742715999789	1104.034733381493	937.371913123748	585.996342073016	1082.496625426724	954.059033272048	312.847193023655	1126.000300588560	728.529660188295	573.824281677924	1036.742279194629	627.348357853495	639.523579639039	1113.115397261831	560.348093380225	567.993172207037	1094.267061078578	452.897989421790	589.577074631337	1149.611223738533	763.717678347682	345.722998384865	1076.327454637969	638.763872958682	284.480794718810	1171.020898125920	570.270195847107	345.920433031623	1180.940173436981	499.307113583723	353.832516998508	1156.300240445299	425.353463655839	344.836483379776	1072.523039623777	308.118487751048	292.144495682262	1129.166577026414	197.687404088749	359.725854618275	1011.302298791283	392.000882219686	596.646315536183	887.170675487823	362.542376687680	656.463798593487	865.696881317499	253.846401329603	609.136218181589	660.833800046856	208.704892087362	582.474555990334	822.206450628055	131.122400947710	619.932029318136	712.250575751874	138.147654500484	650.871658632638	874.050260598699	28.433432901506	633.170313565514	1005.539580247134	39.368265395403	397.211977052804	1080.779229128837	36.985544819414	317.637298874875	1163.782735709774	97.466556891204	346.185341011573	1292.626949821316	42.422797794782	319.174264223567	918.040224974372	1109.301411517743	187.365383128205	948.829704346072	847.758423713917	193.354540602028	1161.096269189216	1098.026478295116	730.927190423458	1390.663718799517	1096.553050784508	630.074122716085	
92	57.436000000000	878.230724982309	1013.705839113391	477.268231531124	1062.609813482995	1431.643220555005	284.177487721045	1175.942245528636	1354.704949787294	435.584104954016	1112.076363887624	1438.749335882378	613.154891796890	1082.001737774755	1491.063862309360	436.598180940991	1103.738615779484	937.949638150503	584.028420317185	1082.963201135365	954.548785019797	310.995348907737	1131.568569112778	731.084912109643	571.483524457124	1046.116847922848	627.794009173618	637.771416033547	1124.042799570397	562.473747049423	565.702955138666	1107.064871734954	453.765838058501	587.601472556728	1148.887275539546	762.731780384311	342.950485213516	1073.634532078899	638.736334682692	282.698398034017	1167.555713712947	569.373302609228	344.087347534089	1176.709908442230	498.479908749355	352.230009307860	1151.428271643930	424.569524837370	343.473729620579	1066.566173507246	307.922426887556	291.271421001554	1122.247301342642	197.227196690948	359.158471868101	1022.628387692039	393.541061746579	594.946399531311	897.647038312549	367.833727981788	654.961638824798	873.177278604338	259.580623803104	608.316837353428	668.426776870632	223.823157619648	581.699721824632	825.092566794835	136.796262631854	619.689519712962	715.585983567360	150.388701920589	650.384441719718	869.923993684207	27.699403914987	633.567201631228	997.344766480059	39.431623633601	397.099068183088	1072.569909935608	36.911300500310	317.522790517182	1155.681871585046	97.270974880273	346.056625529953	1284.504514028815	41.988657045139	319.044998422864	924.433205111474	1107.735967869657	182.799245758366	968.584629031798	848.010747091600	189.544965262969	1151.591591115884	1096.483127286449	728.775228329939	1384.143496448349	1077.124715852722	634.275899912265	
93	57.447714285714	877.864257354876	1013.812707332750	474.695831375710	1064.077902922579	1431.893155815749	282.175588889276	1176.145432588120	1355.037399358494	434.599446610590	1110.784638202945	1439.055268184005	611.709743735672	1082.228540826644	1491.464740345448	434.656093391694	1103.222501821531	938.445749745183	582.209799973218	1083.306883241160	955.005880610075	309.279008240101	1136.923851124790	733.954103376223	568.938030475667	1055.522363871997	628.635963702765	636.027797235592	1134.867735904502	565.155085959071	563.290639398100	1120.093696414168	455.248272516693	585.477239113419	1148.061590834637	761.832332420969	340.418141256882	1070.914868369711	638.766217665395	281.007173391218	1164.028957219313	568.511095963857	342.347859629450	1172.422623486455	497.669811633514	350.707895195116	1146.508436229465	423.794609266952	342.173009314390	1060.567437018608	307.751884709328	290.426495514927	1115.264259574802	196.775805530265	358.613905864114	1034.410991433339	395.495457187852	593.110155488573	908.781243456248	373.064753255280	653.315622617190	881.638652001546	265.289690740818	607.194290368235	677.324712617928	237.812677790822	580.479580438084	829.459410600335	142.644399365000	619.115779053204	720.581610100149	162.120916370121	649.600299744000	867.851190382871	27.593559454634	633.978786052198	989.146586493083	39.496016644945	396.965777876630	1064.354194643036	36.848185377000	317.391940495225	1147.560995437477	97.101656023834	345.907871037576	1276.359329771836	41.639519020206	318.894623103596	931.332740030562	1105.951067972714	178.225614332595	988.957848410851	848.830096672714	185.770749459338	1142.000623578065	1094.989854249163	726.730982640643	1376.241932211534	1057.241480852794	639.111264150332	
94	57.459428571429	877.339101600295	1013.925949420140	472.198177134635	1065.375246439266	1432.083304657439	280.361377336309	1176.191515415371	1355.289245499303	433.774254038173	1109.387013247667	1439.258037792821	610.458785880499	1082.392952933855	1491.821968654907	432.930099170000	1102.490844179894	938.933095342686	580.548453112197	1083.565383853749	955.464055878090	307.704041499203	1141.987493570295	737.179796086456	566.230393733401	1064.819554848602	629.952776357961	634.319265249632	1145.487005328252	568.451319889820	560.850511601197	1133.242449431597	457.421612018194	583.329841092645	1147.134226092370	761.012157981543	338.157785477034	1068.153663409865	638.841479709818	279.444676088023	1160.419847230523	567.670726792200	340.756091693469	1168.050199158421	496.869842520043	349.334231122599	1141.517791815074	423.038757569773	340.982449676599	1054.520397855589	307.615214643513	289.638323596264	1108.209883780779	196.342733177168	358.118585376081	1046.567240106399	397.893094943190	591.238876899232	920.436590818348	378.165547559103	651.558445381666	891.084915829137	270.827207143261	605.830271006669	687.375983835535	250.139982672715	578.835516890302	835.485733635796	148.423089557618	618.222627656779	727.298926701368	172.853648295347	648.526453471744	868.369787016896	28.233519615592	634.377573052586	980.947330375096	39.561856939869	396.818469310016	1056.134416093652	36.800521705340	317.252109453040	1139.421940856297	96.963990187446	345.747580353998	1268.191361942484	41.374681532703	318.726913111398	938.759425712444	1104.039698852256	173.701219747975	1009.828720007030	850.322889975847	182.086768799795	1132.412819835168	1093.628319045330	724.861582156376	1366.825842698314	1037.136897354473	644.525796182621	
